<svg width="148" height="94" viewBox="0 0 148 94" fill="none" xmlns="http://www.w3.org/2000/svg">
<path d="M2.77734 20.1602C4.05469 20.207 5.64844 20.2422 7.55859 20.2656C9.46875 20.2891 11.7129 20.3008 14.291 20.3008C16.8691 20.3008 19.1133 20.2891 21.0234 20.2656C22.9453 20.2422 24.5508 20.207 25.8398 20.1602C25.9102 20.6641 25.998 21.1504 26.1035 21.6191C26.209 22.0762 26.3848 22.5859 26.6309 23.1484L27.1582 24.3438L28.4414 26.8398C28.3594 27.0273 28.1543 27.1855 27.8262 27.3145C27.4277 26.5762 26.9414 25.873 26.3672 25.2051C25.793 24.5371 25.0605 23.9336 24.1699 23.3945C23.291 22.8555 22.2129 22.4043 20.9355 22.041C19.6699 21.6777 18.1406 21.4316 16.3477 21.3027C16.2891 22.7676 16.2422 24.4258 16.207 26.2773C16.1836 28.1172 16.1719 30.168 16.1719 32.4297C16.1719 34.7031 16.1836 36.7656 16.207 38.6172C16.2422 40.4688 16.2891 42.127 16.3477 43.5918C16.3594 43.873 16.4707 44.1133 16.6816 44.3125C16.8926 44.5 17.1797 44.6582 17.543 44.7871C17.918 44.916 18.3457 45.0215 18.8262 45.1035C19.3184 45.1738 19.8457 45.2324 20.4082 45.2793C20.4551 45.4785 20.4785 45.6367 20.4785 45.7539C20.4785 45.8594 20.4551 45.9766 20.4082 46.1055C18.4395 46.0352 16.4004 46 14.291 46C12.1934 46 10.1543 46.0352 8.17383 46.1055C8.12695 45.9766 8.10352 45.8594 8.10352 45.7539C8.10352 45.6367 8.12695 45.4785 8.17383 45.2793L9.01758 45.1914C9.32227 45.1562 9.66211 45.1094 10.0371 45.0508C10.4121 44.9805 10.7578 44.8867 11.0742 44.7695C11.4023 44.6523 11.6777 44.5059 11.9004 44.3301C12.123 44.1543 12.2344 43.9375 12.2344 43.6797V43.5918C12.293 41.4473 12.3398 39.4492 12.375 37.5977C12.4102 35.7461 12.4277 34.0234 12.4277 32.4297C12.4277 30.8477 12.4102 29.1367 12.375 27.2969C12.3398 25.4453 12.293 23.4473 12.2344 21.3027C10.5469 21.3965 9.07617 21.625 7.82227 21.9883C6.58008 22.3398 5.50195 22.7852 4.58789 23.3242C3.67383 23.8516 2.91211 24.4609 2.30273 25.1523C1.69336 25.832 1.18945 26.5527 0.791016 27.3145C0.462891 27.1855 0.257812 27.0273 0.175781 26.8398L0.966797 25.3457L1.33594 24.5898C1.48828 24.2734 1.64062 23.9512 1.79297 23.623C1.94531 23.2949 2.08594 22.9551 2.21484 22.6035C2.35547 22.2402 2.47266 21.8594 2.56641 21.4609C2.66016 21.0508 2.73047 20.6172 2.77734 20.1602ZM29.7773 20.7227C32.0039 20.5117 33.9785 20.0312 35.7012 19.2812C36.0176 19.4102 36.2227 19.5684 36.3164 19.7559V33.2559C37.4766 32.2715 38.5664 31.4863 39.5859 30.9004C40.6055 30.3145 41.6426 30.0215 42.6973 30.0215C44.0215 30.0215 44.9648 30.3965 45.5273 31.1465C46.0898 31.8965 46.3828 33.0684 46.4062 34.6621L46.5469 43.5918C46.5586 43.8965 46.6465 44.1602 46.8105 44.3828C46.9863 44.5938 47.2324 44.7578 47.5488 44.875C47.8652 44.9922 48.1289 45.0801 48.3398 45.1387C48.5508 45.1855 48.8262 45.2324 49.166 45.2793C49.2246 45.5723 49.2539 45.7305 49.2539 45.7539C49.2539 45.8125 49.2246 45.9297 49.166 46.1055C47.6543 46.0352 46.2773 46 45.0352 46C43.7812 46 42.3984 46.0352 40.8867 46.1055C40.8398 45.918 40.8164 45.7773 40.8164 45.6836C40.8164 45.6016 40.8398 45.4668 40.8867 45.2793C41.1914 45.2324 41.4434 45.1855 41.6426 45.1387C41.8535 45.0801 42.0879 44.9922 42.3457 44.875C42.6152 44.7578 42.8145 44.5938 42.9434 44.3828C43.084 44.1602 43.1543 43.8965 43.1543 43.5918L43.1895 35.2422C43.1895 33.1211 42.5566 32.0605 41.291 32.0605C40.1074 32.0605 38.4492 32.8281 36.3164 34.3633C36.3633 39.2383 36.4102 42.3145 36.457 43.5918C36.4688 43.8379 36.5391 44.0605 36.668 44.2598C36.8086 44.4473 36.9609 44.5996 37.125 44.7168C37.2891 44.8223 37.5117 44.9219 37.793 45.0156C38.0742 45.0977 38.291 45.1562 38.4434 45.1914C38.6074 45.2148 38.8242 45.2441 39.0938 45.2793C39.1641 45.4199 39.1992 45.5664 39.1992 45.7188C39.1992 45.8711 39.1641 46 39.0938 46.1055C37.5469 46.0352 36.0469 46 34.5938 46C33.1641 46 31.6758 46.0352 30.1289 46.1055C30.082 45.918 30.0586 45.7891 30.0586 45.7188C30.0586 45.6602 30.082 45.5137 30.1289 45.2793C30.5156 45.2324 30.8262 45.1855 31.0605 45.1387C31.3066 45.0801 31.6113 44.9922 31.9746 44.875C32.3496 44.7578 32.6309 44.5938 32.8184 44.3828C33.0059 44.1602 33.1055 43.8965 33.1172 43.5918C33.1641 42.4316 33.1875 39.8359 33.1875 35.8047C33.1875 33.9414 33.1816 31.4043 33.1699 28.1934C33.1582 24.9824 33.1523 23.0078 33.1523 22.2695C32.4844 21.8828 31.3594 21.6426 29.7773 21.5488C29.7188 21.3965 29.6895 21.2559 29.6895 21.127C29.6895 21.0098 29.7188 20.875 29.7773 20.7227ZM65.2852 36.6836H55.7051C55.6582 37.3867 55.6348 38.0078 55.6348 38.5469C55.6699 40.293 56.1797 41.6934 57.1641 42.748C58.1484 43.791 59.4668 44.3125 61.1191 44.3125C61.5645 44.3125 61.9805 44.2656 62.3672 44.1719C62.7539 44.0664 63.0703 43.9492 63.3164 43.8203C63.5742 43.6914 63.8379 43.5039 64.1074 43.2578C64.377 43.0117 64.5703 42.8184 64.6875 42.6777C64.8164 42.5254 64.9863 42.3027 65.1973 42.0098C65.4082 41.7051 65.5488 41.5117 65.6191 41.4297C65.9004 41.4883 66.1289 41.6172 66.3047 41.8164C65.7188 43.3867 64.8105 44.5645 63.5801 45.3496C62.3496 46.123 61.0137 46.5098 59.5723 46.5098C58.8574 46.5098 58.1602 46.416 57.4805 46.2285C56.8125 46.0527 56.1621 45.7598 55.5293 45.3496C54.8965 44.9395 54.3457 44.4355 53.877 43.8379C53.4082 43.2285 53.0332 42.4727 52.752 41.5703C52.4707 40.6562 52.3301 39.6484 52.3301 38.5469C52.3301 36.0742 53.0859 34.0352 54.5977 32.4297C56.1094 30.8242 57.9668 30.0215 60.1699 30.0215C61.1426 30.0215 61.9863 30.1621 62.7012 30.4434C63.4277 30.7129 63.9902 31.082 64.3887 31.5508C64.7988 32.0195 65.0977 32.5352 65.2852 33.0977C65.4844 33.6484 65.584 34.2402 65.584 34.873C65.584 35.459 65.4844 36.0625 65.2852 36.6836ZM59.748 31.1641C58.9395 31.1641 58.1719 31.5215 57.4453 32.2363C56.7305 32.9512 56.2148 34.0352 55.8984 35.4883H62.2266C62.3438 35.043 62.4023 34.6562 62.4023 34.3281C62.4023 33.4141 62.1914 32.6582 61.7695 32.0605C61.3477 31.4629 60.6738 31.1641 59.748 31.1641Z" fill="#726F12"/>
<path d="M89 10.75C90.2031 10.75 91.4688 10.875 92.7969 11.125C94.1406 11.375 95.4609 11.7891 96.7578 12.3672C98.0703 12.9297 99.3203 13.6797 100.508 14.6172C101.711 15.5391 102.766 16.6719 103.672 18.0156C104.578 19.3594 105.297 20.9297 105.828 22.7266C106.375 24.5234 106.648 26.5859 106.648 28.9141C106.648 31.2578 106.383 33.3359 105.852 35.1484C105.32 36.9453 104.602 38.5156 103.695 39.8594C102.789 41.1875 101.734 42.3125 100.531 43.2344C99.3438 44.1406 98.0859 44.875 96.7578 45.4375C95.4453 45.9844 94.1016 46.375 92.7266 46.6094C91.3516 46.8594 90.0391 46.9844 88.7891 46.9844C87.6016 46.9844 86.3359 46.8594 84.9922 46.6094C83.6641 46.375 82.3438 45.9844 81.0312 45.4375C79.7188 44.875 78.4609 44.1406 77.2578 43.2344C76.0703 42.3125 75.0156 41.1875 74.0938 39.8594C73.1875 38.5156 72.4609 36.9453 71.9141 35.1484C71.3828 33.3359 71.1172 31.2578 71.1172 28.9141C71.1172 26.5078 71.3984 24.3906 71.9609 22.5625C72.5234 20.7188 73.2656 19.125 74.1875 17.7812C75.125 16.4375 76.2031 15.3203 77.4219 14.4297C78.6562 13.5234 79.9297 12.7969 81.2422 12.25C82.5703 11.7031 83.8984 11.3203 85.2266 11.1016C86.5703 10.8672 87.8281 10.75 89 10.75ZM88.8828 12.4375C87.4141 12.4375 86.1094 12.6797 84.9688 13.1641C83.8281 13.6484 82.8281 14.3047 81.9688 15.1328C81.1094 15.9453 80.3828 16.8984 79.7891 17.9922C79.1953 19.0703 78.7109 20.2188 78.3359 21.4375C77.9766 22.6562 77.7109 23.9062 77.5391 25.1875C77.3828 26.4688 77.3047 27.7109 77.3047 28.9141C77.3047 30.0703 77.3828 31.2734 77.5391 32.5234C77.6953 33.7734 77.9531 35.0078 78.3125 36.2266C78.6719 37.4297 79.1406 38.5781 79.7188 39.6719C80.3125 40.7656 81.0391 41.7266 81.8984 42.5547C82.7578 43.3828 83.7578 44.0469 84.8984 44.5469C86.0547 45.0312 87.3828 45.2734 88.8828 45.2734C90.3516 45.2734 91.6562 45.0391 92.7969 44.5703C93.9375 44.0859 94.9375 43.4375 95.7969 42.625C96.6562 41.7969 97.375 40.8438 97.9531 39.7656C98.5469 38.6719 99.0234 37.5234 99.3828 36.3203C99.7578 35.1016 100.023 33.8594 100.18 32.5938C100.352 31.3281 100.438 30.1016 100.438 28.9141C100.438 27.7109 100.352 26.4688 100.18 25.1875C100.023 23.9062 99.7578 22.6562 99.3828 21.4375C99.0234 20.2188 98.5469 19.0703 97.9531 17.9922C97.3594 16.8984 96.6328 15.9453 95.7734 15.1328C94.9141 14.3047 93.9141 13.6484 92.7734 13.1641C91.6328 12.6797 90.3359 12.4375 88.8828 12.4375Z" fill="#726F12"/>
<path d="M118.652 45.2793C118.723 45.4199 118.758 45.5664 118.758 45.7188C118.758 45.8359 118.723 45.9648 118.652 46.1055C117.105 46.0352 115.605 46 114.152 46C112.723 46 111.234 46.0352 109.688 46.1055C109.641 45.918 109.617 45.7891 109.617 45.7188C109.617 45.6602 109.641 45.5137 109.688 45.2793C110.074 45.2324 110.391 45.1855 110.637 45.1387C110.883 45.0801 111.188 44.9922 111.551 44.875C111.914 44.7578 112.189 44.5938 112.377 44.3828C112.564 44.1602 112.664 43.8965 112.676 43.5918C112.723 42.4316 112.746 41.0254 112.746 39.373C112.746 38.8223 112.74 37.8848 112.729 36.5605C112.717 35.2363 112.711 34.0762 112.711 33.0801C112.043 32.6699 110.918 32.4297 109.336 32.3594C109.289 32.1719 109.266 32.0254 109.266 31.9199C109.266 31.8496 109.289 31.7207 109.336 31.5332C111.609 31.2988 113.59 30.8184 115.277 30.0918C115.57 30.209 115.775 30.3613 115.893 30.5488V33.3262C117.029 32.3301 118.119 31.5332 119.162 30.9355C120.205 30.3262 121.26 30.0215 122.326 30.0215C123.662 30.0215 124.605 30.3965 125.156 31.1465C125.719 31.8965 126.012 33.0684 126.035 34.6621L126.211 43.5918C126.223 43.8965 126.311 44.1602 126.475 44.3828C126.65 44.5938 126.896 44.7578 127.213 44.875C127.541 44.9922 127.811 45.0801 128.021 45.1387C128.232 45.1855 128.508 45.2324 128.848 45.2793C128.895 45.5137 128.918 45.6719 128.918 45.7539C128.918 45.8477 128.895 45.9648 128.848 46.1055C127.336 46.0352 125.941 46 124.664 46C123.422 46 122.045 46.0352 120.533 46.1055C120.486 45.918 120.463 45.7773 120.463 45.6836C120.463 45.6016 120.486 45.4668 120.533 45.2793C120.838 45.2324 121.09 45.1855 121.289 45.1387C121.5 45.0801 121.734 44.9922 121.992 44.875C122.262 44.7578 122.461 44.5938 122.59 44.3828C122.73 44.1602 122.801 43.8965 122.801 43.5918L122.836 35.2422C122.836 33.1211 122.197 32.0605 120.92 32.0605C119.725 32.0605 118.049 32.8574 115.893 34.4512C115.893 37.8613 115.939 40.9082 116.033 43.5918C116.045 43.8965 116.133 44.1602 116.297 44.3828C116.473 44.5938 116.719 44.7578 117.035 44.875C117.352 44.9922 117.615 45.0801 117.826 45.1387C118.037 45.1855 118.312 45.2324 118.652 45.2793ZM144.949 36.6836H135.369C135.322 37.3867 135.299 38.0078 135.299 38.5469C135.334 40.293 135.844 41.6934 136.828 42.748C137.812 43.791 139.131 44.3125 140.783 44.3125C141.229 44.3125 141.645 44.2656 142.031 44.1719C142.418 44.0664 142.734 43.9492 142.98 43.8203C143.238 43.6914 143.502 43.5039 143.771 43.2578C144.041 43.0117 144.234 42.8184 144.352 42.6777C144.48 42.5254 144.65 42.3027 144.861 42.0098C145.072 41.7051 145.213 41.5117 145.283 41.4297C145.564 41.4883 145.793 41.6172 145.969 41.8164C145.383 43.3867 144.475 44.5645 143.244 45.3496C142.014 46.123 140.678 46.5098 139.236 46.5098C138.521 46.5098 137.824 46.416 137.145 46.2285C136.477 46.0527 135.826 45.7598 135.193 45.3496C134.561 44.9395 134.01 44.4355 133.541 43.8379C133.072 43.2285 132.697 42.4727 132.416 41.5703C132.135 40.6562 131.994 39.6484 131.994 38.5469C131.994 36.0742 132.75 34.0352 134.262 32.4297C135.773 30.8242 137.631 30.0215 139.834 30.0215C140.807 30.0215 141.65 30.1621 142.365 30.4434C143.092 30.7129 143.654 31.082 144.053 31.5508C144.463 32.0195 144.762 32.5352 144.949 33.0977C145.148 33.6484 145.248 34.2402 145.248 34.873C145.248 35.459 145.148 36.0625 144.949 36.6836ZM139.412 31.1641C138.604 31.1641 137.836 31.5215 137.109 32.2363C136.395 32.9512 135.879 34.0352 135.562 35.4883H141.891C142.008 35.043 142.066 34.6562 142.066 34.3281C142.066 33.4141 141.855 32.6582 141.434 32.0605C141.012 31.4629 140.338 31.1641 139.412 31.1641Z" fill="#726F12"/>
<path d="M33.4824 57.5957C33.0371 55.4512 32.2168 53.7871 31.0215 52.6035C29.8379 51.4199 28.4141 50.8281 26.75 50.8281C25.1211 50.8281 23.8555 51.2148 22.9531 51.9883C22.0625 52.7617 21.6172 53.793 21.6172 55.082C21.6172 55.7969 21.6816 56.3887 21.8105 56.8574C21.9395 57.3262 22.2031 57.7832 22.6016 58.2285C23 58.6621 23.5801 59.0488 24.3418 59.3887C25.1035 59.7168 26.0996 60.0332 27.3301 60.3379C27.998 60.502 28.5781 60.6543 29.0703 60.7949C29.5742 60.9355 30.125 61.1289 30.7227 61.375C31.332 61.6211 31.8535 61.8848 32.2871 62.166C32.7324 62.4473 33.1719 62.7988 33.6055 63.2207C34.0508 63.6309 34.4082 64.0879 34.6777 64.5918C34.959 65.0957 35.1816 65.6934 35.3457 66.3848C35.5215 67.0645 35.6094 67.8086 35.6094 68.6172C35.6094 69.6953 35.4102 70.6914 35.0117 71.6055C34.6133 72.5078 34.0918 73.2695 33.4473 73.8906C32.8027 74.5117 32.0586 75.0391 31.2148 75.4727C30.3711 75.9062 29.5156 76.2227 28.6484 76.4219C27.7812 76.6211 26.9199 76.7207 26.0645 76.7207C23.4629 76.7207 20.6914 76.0469 17.75 74.6992C17.8086 73.4336 17.8379 72.6543 17.8379 72.3613C17.8379 70.4512 17.6797 68.5469 17.3633 66.6484C17.4922 66.5664 17.6211 66.5254 17.75 66.5254C17.9141 66.5254 18.0605 66.5664 18.1895 66.6484C18.4355 68.1602 18.8398 69.4961 19.4023 70.6562C19.9766 71.8164 20.6328 72.7363 21.3711 73.416C22.1094 74.084 22.8711 74.5879 23.6562 74.9277C24.4531 75.2559 25.2559 75.4199 26.0645 75.4199C27.9043 75.4199 29.3164 74.9453 30.3008 73.9961C31.2969 73.0352 31.7949 71.7695 31.7949 70.1992C31.7949 68.6172 31.4258 67.4277 30.6875 66.6309C29.9609 65.8223 28.5664 65.166 26.5039 64.6621C23.9258 64.0176 21.9102 63.0684 20.457 61.8145C19.0156 60.5488 18.2949 58.8789 18.2949 56.8047C18.2949 55.7148 18.4707 54.7422 18.8223 53.8867C19.1855 53.0195 19.6484 52.3281 20.2109 51.8125C20.7852 51.2852 21.4531 50.8516 22.2148 50.5117C22.9766 50.1602 23.7266 49.9199 24.4648 49.791C25.2148 49.6504 25.9766 49.5801 26.75 49.5801C29.0703 49.5801 31.4844 50.1191 33.9922 51.1973C33.9219 51.8887 33.8867 52.6094 33.8867 53.3594C33.8867 55.1172 34.0273 56.5293 34.3086 57.5957C34.1562 57.6543 34.0273 57.6836 33.9219 57.6836C33.8047 57.6836 33.6582 57.6543 33.4824 57.5957ZM36.5762 60.4082C38.123 60.4785 39.6875 60.5137 41.2695 60.5137C42.7109 60.5137 44.1875 60.4785 45.6992 60.4082C45.7461 60.5957 45.7695 60.7422 45.7695 60.8477C45.7695 60.918 45.7461 61.0469 45.6992 61.2344C45.3477 61.2578 45.0664 61.2871 44.8555 61.3223C44.6445 61.3457 44.3691 61.3926 44.0293 61.4629C43.7012 61.5332 43.4492 61.6387 43.2734 61.7793C43.1094 61.9199 43.0273 62.0898 43.0273 62.2891C43.0273 62.3945 43.0742 62.6113 43.168 62.9395L46.7363 71.8164H46.8418L50.2344 62.9395C50.3516 62.6465 50.4102 62.3945 50.4102 62.1836C50.4102 61.6445 49.7363 61.3281 48.3887 61.2344C48.3418 61.0469 48.3184 60.918 48.3184 60.8477C48.3184 60.7422 48.3418 60.5957 48.3887 60.4082C49.7598 60.4785 50.6152 60.5137 50.9551 60.5137C51.9395 60.5137 53.1875 60.4785 54.6992 60.4082C54.7461 60.5488 54.7695 60.6719 54.7695 60.7773C54.7695 60.8477 54.7461 61 54.6992 61.2344C53.2344 61.293 52.2852 61.8613 51.8516 62.9395L46.4199 75.9297H46.4551L44.5039 81.0449C43.7773 82.9434 43.0977 84.2266 42.4648 84.8945C41.8438 85.5625 41.0469 85.8965 40.0742 85.8965C39.2891 85.8965 38.6328 85.6621 38.1055 85.1934C37.5898 84.7246 37.332 84.1094 37.332 83.3477C37.332 82.6562 37.5254 82.1113 37.9121 81.7129C38.2988 81.3145 38.7793 81.1152 39.3535 81.1152C39.8809 81.1152 40.2852 81.2734 40.5664 81.5898C40.8594 81.9062 41.0059 82.2637 41.0059 82.6621C41.0059 83.2246 40.7539 83.6699 40.25 83.998C40.3086 84.2559 40.502 84.3848 40.8301 84.3848C41.2051 84.3848 41.5566 84.168 41.8848 83.7344C42.2129 83.3125 42.6406 82.4043 43.168 81.0098L45.1191 76L39.6348 62.9395C39.5059 62.6465 39.3242 62.3945 39.0898 62.1836C38.8555 61.9609 38.5684 61.791 38.2285 61.6738C37.9004 61.5449 37.625 61.457 37.4023 61.4102C37.1797 61.3516 36.9043 61.293 36.5762 61.2344C36.5293 61.1406 36.5059 61.0117 36.5059 60.8477C36.5059 60.6719 36.5293 60.5254 36.5762 60.4082ZM62.1875 76.5098C61.6133 76.5098 61.0918 76.4629 60.623 76.3691C60.166 76.2754 59.8086 76.1758 59.5508 76.0703C59.3047 75.9648 58.9707 75.8066 58.5488 75.5957C58.0918 75.5957 57.418 75.7656 56.5273 76.1055C56.375 76.0117 56.2695 75.9062 56.2109 75.7891C56.2695 75.6016 56.3398 74.9629 56.4219 73.873C56.5156 72.7832 56.5625 71.8105 56.5625 70.9551C56.7148 70.8848 56.9902 70.8496 57.3887 70.8496C57.5996 71.5293 57.8164 72.1094 58.0391 72.5898C58.2734 73.0703 58.5664 73.5391 58.918 73.9961C59.2812 74.4414 59.7148 74.7812 60.2188 75.0156C60.7344 75.2383 61.3203 75.3496 61.9766 75.3496C62.9961 75.3496 63.793 75.0859 64.3672 74.5586C64.9531 74.0312 65.2461 73.4336 65.2461 72.7656C65.2461 72.2617 65.1641 71.834 65 71.4824C64.8359 71.1309 64.4668 70.7617 63.8926 70.375C63.3301 69.9766 62.5215 69.584 61.4668 69.1973C60.8105 68.9629 60.2539 68.7461 59.7969 68.5469C59.3398 68.3477 58.8652 68.1016 58.373 67.8086C57.8926 67.5156 57.5059 67.2168 57.2129 66.9121C56.9199 66.5957 56.6797 66.2207 56.4922 65.7871C56.3047 65.3535 56.2109 64.8789 56.2109 64.3633C56.2109 63.9883 56.252 63.6191 56.334 63.2559C56.4277 62.8809 56.5977 62.4941 56.8438 62.0957C57.1016 61.6973 57.418 61.3516 57.793 61.0586C58.1797 60.7539 58.6895 60.5078 59.3223 60.3203C59.9668 60.1211 60.6934 60.0215 61.502 60.0215C61.8301 60.0215 62.1172 60.0391 62.3633 60.0742C62.6211 60.1094 62.9258 60.1738 63.2773 60.2676C63.6406 60.3496 63.8398 60.3965 63.875 60.4082C64.1328 60.3496 64.3965 60.2734 64.666 60.1797C64.9473 60.0859 65.1055 60.0332 65.1406 60.0215H65.5977C65.8789 61.709 66.2422 63.1445 66.6875 64.3281C66.5469 64.4805 66.3184 64.5566 66.002 64.5566C65.0293 63.3848 64.1973 62.5293 63.5059 61.9902C62.8262 61.4395 62.0527 61.1641 61.1855 61.1641C60.5059 61.1641 59.9082 61.3164 59.3926 61.6211C58.877 61.9258 58.6191 62.3887 58.6191 63.0098C58.6191 63.7949 58.9297 64.4102 59.5508 64.8555C60.1836 65.3008 61.3496 65.8691 63.0488 66.5605C63.834 66.877 64.4492 67.1406 64.8945 67.3516C65.3516 67.5625 65.8086 67.8145 66.2656 68.1074C66.7227 68.4004 67.0566 68.7051 67.2676 69.0215C67.4902 69.3262 67.6719 69.6953 67.8125 70.1289C67.9531 70.5625 68.0234 71.0664 68.0234 71.6406C68.0234 72.8828 67.4492 74.0078 66.3008 75.0156C65.1641 76.0117 63.793 76.5098 62.1875 76.5098ZM76.1621 57.0332C76.2793 56.9863 76.4141 56.9629 76.5664 56.9629C76.7188 56.9629 76.877 56.9863 77.041 57.0332V60.8828H82.3672C82.4375 61.0586 82.4727 61.2754 82.4727 61.5332C82.4727 61.7559 82.4375 61.9609 82.3672 62.1484H77.041V71.5352C77.041 73.3867 77.8906 74.3125 79.5898 74.3125C80.2344 74.3125 80.7852 74.1895 81.2422 73.9434C81.7109 73.6973 82.2266 73.3281 82.7891 72.8359C83.082 72.8711 83.2754 73.0117 83.3691 73.2578C82.8535 74.1836 82.0918 74.957 81.084 75.5781C80.0762 76.1992 78.9688 76.5098 77.7617 76.5098C74.9258 76.5098 73.5078 74.793 73.5078 71.3594V62.1484H71.3457C71.2988 61.9375 71.2754 61.8027 71.2754 61.7441C71.2754 61.7324 71.2988 61.5977 71.3457 61.3398C71.9082 61.0586 72.3359 60.8301 72.6289 60.6543C72.9336 60.4668 73.3145 60.2031 73.7715 59.8633C74.2402 59.5234 74.6621 59.125 75.0371 58.668C75.4238 58.1992 75.7988 57.6543 76.1621 57.0332ZM99.0488 66.6836H89.4688C89.4219 67.3867 89.3984 68.0078 89.3984 68.5469C89.4336 70.293 89.9434 71.6934 90.9277 72.748C91.9121 73.791 93.2305 74.3125 94.8828 74.3125C95.3281 74.3125 95.7441 74.2656 96.1309 74.1719C96.5176 74.0664 96.834 73.9492 97.0801 73.8203C97.3379 73.6914 97.6016 73.5039 97.8711 73.2578C98.1406 73.0117 98.334 72.8184 98.4512 72.6777C98.5801 72.5254 98.75 72.3027 98.9609 72.0098C99.1719 71.7051 99.3125 71.5117 99.3828 71.4297C99.6641 71.4883 99.8926 71.6172 100.068 71.8164C99.4824 73.3867 98.5742 74.5645 97.3438 75.3496C96.1133 76.123 94.7773 76.5098 93.3359 76.5098C92.6211 76.5098 91.9238 76.416 91.2441 76.2285C90.5762 76.0527 89.9258 75.7598 89.293 75.3496C88.6602 74.9395 88.1094 74.4355 87.6406 73.8379C87.1719 73.2285 86.7969 72.4727 86.5156 71.5703C86.2344 70.6562 86.0938 69.6484 86.0938 68.5469C86.0938 66.0742 86.8496 64.0352 88.3613 62.4297C89.873 60.8242 91.7305 60.0215 93.9336 60.0215C94.9062 60.0215 95.75 60.1621 96.4648 60.4434C97.1914 60.7129 97.7539 61.082 98.1523 61.5508C98.5625 62.0195 98.8613 62.5352 99.0488 63.0977C99.248 63.6484 99.3477 64.2402 99.3477 64.873C99.3477 65.459 99.248 66.0625 99.0488 66.6836ZM93.5117 61.1641C92.7031 61.1641 91.9355 61.5215 91.209 62.2363C90.4941 62.9512 89.9785 64.0352 89.6621 65.4883H95.9902C96.1074 65.043 96.166 64.6562 96.166 64.3281C96.166 63.4141 95.9551 62.6582 95.5332 62.0605C95.1113 61.4629 94.4375 61.1641 93.5117 61.1641ZM123.693 75.2793C123.986 75.2324 124.227 75.1855 124.414 75.1387C124.613 75.0801 124.83 74.9922 125.064 74.875C125.299 74.7578 125.475 74.5938 125.592 74.3828C125.709 74.1602 125.768 73.8965 125.768 73.5918L125.803 65.2422C125.803 63.1211 125.17 62.0605 123.904 62.0605C123.271 62.0605 122.586 62.2598 121.848 62.6582C121.109 63.0566 120.225 63.6543 119.193 64.4512V64.6621L119.334 73.5918C119.346 73.8965 119.434 74.1602 119.598 74.3828C119.773 74.5938 120.02 74.7578 120.336 74.875C120.652 74.9922 120.916 75.0801 121.127 75.1387C121.338 75.1855 121.613 75.2324 121.953 75.2793C122 75.5137 122.023 75.6719 122.023 75.7539C122.023 75.8477 122 75.9648 121.953 76.1055C120.441 76.0352 119.064 76 117.822 76C116.686 76 115.361 76.0352 113.85 76.1055C113.803 75.918 113.779 75.7773 113.779 75.6836C113.779 75.6016 113.803 75.4668 113.85 75.2793C114.143 75.2324 114.389 75.1855 114.588 75.1387C114.787 75.0801 115.004 74.9922 115.238 74.875C115.473 74.7578 115.648 74.5938 115.766 74.3828C115.883 74.1602 115.941 73.8965 115.941 73.5918L115.977 65.2422C115.977 63.1211 115.344 62.0605 114.078 62.0605C113.445 62.0605 112.771 62.2539 112.057 62.6406C111.354 63.0273 110.469 63.6191 109.402 64.416C109.402 67.8496 109.449 70.9082 109.543 73.5918C109.555 73.8965 109.637 74.1602 109.789 74.3828C109.941 74.5938 110.158 74.7578 110.439 74.875C110.732 74.9922 110.984 75.0801 111.195 75.1387C111.406 75.1855 111.67 75.2324 111.986 75.2793C112.057 75.4199 112.092 75.5664 112.092 75.7188C112.092 75.8359 112.057 75.9648 111.986 76.1055C110.439 76.0352 108.998 76 107.662 76C106.232 76 104.744 76.0352 103.197 76.1055C103.15 75.918 103.127 75.7891 103.127 75.7188C103.127 75.6602 103.15 75.5137 103.197 75.2793C103.584 75.2324 103.9 75.1855 104.146 75.1387C104.393 75.0801 104.697 74.9922 105.061 74.875C105.424 74.7578 105.699 74.5938 105.887 74.3828C106.074 74.1602 106.174 73.8965 106.186 73.5918C106.232 72.4316 106.256 71.0254 106.256 69.373C106.256 68.8223 106.25 67.8848 106.238 66.5605C106.227 65.2363 106.221 64.0762 106.221 63.0801C105.553 62.6699 104.428 62.4297 102.846 62.3594C102.799 62.1719 102.775 62.0254 102.775 61.9199C102.775 61.8496 102.799 61.7207 102.846 61.5332C105.119 61.2988 107.1 60.8184 108.787 60.0918C109.08 60.209 109.285 60.3613 109.402 60.5488V63.3262C109.953 62.8223 110.416 62.418 110.791 62.1133C111.166 61.7969 111.623 61.457 112.162 61.0938C112.713 60.7305 113.258 60.4609 113.797 60.2852C114.348 60.1094 114.91 60.0215 115.484 60.0215C116.633 60.0215 117.488 60.2969 118.051 60.8477C118.613 61.3867 118.965 62.2363 119.105 63.3965C119.703 62.8574 120.178 62.4414 120.529 62.1484C120.893 61.8555 121.361 61.5156 121.936 61.1289C122.51 60.7422 123.072 60.4609 123.623 60.2852C124.174 60.1094 124.736 60.0215 125.311 60.0215C126.635 60.0215 127.578 60.3965 128.141 61.1465C128.703 61.8965 128.996 63.0684 129.02 64.6621L129.195 73.5918C129.207 73.8965 129.295 74.1602 129.459 74.3828C129.635 74.5938 129.881 74.7578 130.197 74.875C130.514 74.9922 130.777 75.0801 130.988 75.1387C131.199 75.1855 131.475 75.2324 131.814 75.2793C131.873 75.5723 131.902 75.7305 131.902 75.7539C131.902 75.8125 131.873 75.9297 131.814 76.1055C130.303 76.0352 128.914 76 127.648 76C126.523 76 125.205 76.0352 123.693 76.1055C123.635 75.8711 123.605 75.7305 123.605 75.6836C123.605 75.6484 123.635 75.5137 123.693 75.2793Z" fill="#726F12"/>
</svg>
